# xmcd CD database file
#
# Track frame offsets:
#	150
#	18542
#	38312
#	59087
#	78012
#	95955
#	111767
#	128862
#	162580
#
# Disc length: 2497 seconds
#
# Revision: 0
# Processed by: cddbd v1.5.2PL0 Copyright (c) Steve Scherf et al.
# Submitted via: CDex 1.70beta2
#
DISCID=7209bf09
DTITLE=Lori Andrews - Suspended
DYEAR=2001
DGENRE=Jazz
TTITLE0=Guate Jam
TTITLE1=Roatan
TTITLE2=Snowcaps
TTITLE3=Yarapa Bop
TTITLE4=Suspended
TTITLE5=Heaven on Earth
TTITLE6=Dee
TTITLE7=Jungle Blues
TTITLE8=Salsa Brava
EXTD=YEAR: 2001
EXTT0=
EXTT1=
EXTT2=
EXTT3=
EXTT4=
EXTT5=
EXTT6=
EXTT7=
EXTT8=
PLAYORDER=
